<?xml version="1.0" encoding="UTF-8"?><svg id="Layer_1" xmlns="http://www.w3.org/2000/svg" viewBox="0 0 1024 1024"><defs><style>.cls-1{fill:#8e6cff;}</style></defs><path class="cls-1" d="M688.87,478.12c-49.84-13.1-100.67-13.57-151.03-10.12-66.63,4.62-105.93-25.56-130.03-85.05-26.44-65.22-43.7-133.02-62.24-200.52-4.74-17.14-10.12-33.87-22.17-47.09-18.31-20.01-40.95-31.24-67.97-21.94-26.67,9.18-34.63,32.05-35.27,58.2-.47,17.9,4.56,34.45,11.06,50.95,44.4,113.25,88.5,226.67,132.55,340.09,9.53,24.63,17.08,49.9,15.79,76.69-1.7,37.38-25.56,68.09-59.96,78.15-37.73,11.11-68.61,.64-92.19-32.11-9.65-13.4-17.78-27.96-27.14-41.59-27.96-40.48-58.9-78.09-106.64-96.52-33.4-12.87-67.44-2.34-85.58,24.8-14.97,22.58-9.89,48.55,15.79,76.28,23.51,25.56,52.41,43.81,84.12,56.97,82.07,34.16,145.36,89.15,190.52,165.77,15.85,26.85,35.33,51.3,57.09,73.88,39.25,40.89,87.1,53.46,141.5,42.7,9.77-1.99,18.89-6.43,28.6-8.72,22.87-5.5,46.5-2.81,69.49,.7,23.69,3.57,47.03,9.3,70.02,16.09,.23,.06,.53,.12,.82,.23,37.96,12.63,73.59-.82,101.78-38.08,11.87-15.68,20.82-32.87,28.19-51.01,27.32-67.5,39.83-138.4,46.68-210.29,12.23-127.4-29.95-185.9-153.78-218.48Zm64.52,218.89c-1.81,29.48-19.77,62.59-46.15,91.6-29.95,32.93-67.21,54.98-108.39,70.95-2.63,1.05-4.91,1.7-7.9,.35-50.07-22.99-93.18-54.46-122.25-102.37-15.79-26.03-25.09-54.05-23.57-85.05,1.7-35.39,18.84-59.55,51.94-72.3,31.35-12.05,59.08-5.67,83.59,16.67,6.61,5.97,12.4,12.75,17.2,20.24,2.52,3.98,3.92,3.22,6.38,.06,8.01-10.3,17.37-19.19,28.49-26.03,22.29-13.8,45.57-15.74,69.78-5.73,36.44,15.09,52.59,40.6,50.89,91.6Z"/><path class="cls-1" d="M676.81,344.32c-.68,28.47,4.55,49.53,28.87,57.13,24.99,7.81,43.24-5.17,56.43-25.63,5.75-8.92,10.76-18.51,14.77-28.34,15.78-38.68,31.32-77.47,46.39-116.44,12.25-31.7,25.57-63.17,34.97-95.73,8.97-31.07-6.17-61.27-31.14-71.1-24.11-9.48-53.04-.07-65.25,29.4-32.67,78.83-59.81,159.82-84.08,241.69-1.35,4.57-1.02,9.64-.96,9.02Z"/><path class="cls-1" d="M465.94,107.42c7.46,52.94,15.11,105.86,22.26,158.84,3.25,24.06,4.1,48.51,13.61,71.38,9.52,22.89,23.29,42.99,50.66,40.79,29.69-2.38,37.56-27.04,42.5-51.91,.94-4.72,.65-9.69,.99-15.73-1.76-14.3-3.98-29.7-5.49-45.17-5.79-59.06-11.06-118.17-17.08-177.2-4.29-42.02-30.81-68.98-63.58-65.84-31.34,3.01-49.71,33.98-45.16,76.17,.31,2.9,.89,5.77,1.3,8.66Z"/><path class="cls-1" d="M982.79,253.49c-21.85,1.33-36.15,11.01-46.61,25.95-32.33,46.2-64.22,92.7-96.16,139.17-2.73,3.98-4.8,8.47-6.76,12.9-13.04,29.54-9.34,53.17,11.54,64.57,26.2,14.31,45.33-.46,60.49-19.29,28.04-34.82,54.5-70.91,81.31-106.7,11.04-14.75,23.19-29.13,31.46-45.39,16.44-32.34-5.48-71.57-35.27-71.22Z"/></svg>